<svg id="Filled" height="512" viewBox="0 0 512 512" width="512" xmlns="http://www.w3.org/2000/svg"><path d="m320 488h-128l16-96v-32h96v32z" fill="#757c80"/><rect fill="#b5b8b9" height="368" rx="16" width="464" x="24" y="24"/><path d="m40 24h432a16 16 0 0 1 16 16v48a0 0 0 0 1 0 0h-464a0 0 0 0 1 0 0v-48a16 16 0 0 1 16-16z" fill="#2b70a8"/><path d="m24 88h464v224h-464z" fill="#fae8d8"/><path d="m472 16h-432a24.028 24.028 0 0 0 -24 24v336a24.028 24.028 0 0 0 24 24h158.556l-13.334 80h-33.222a8 8 0 0 0 0 16h208a8 8 0 0 0 0-16h-33.222l-13.334-80h158.556a24.028 24.028 0 0 0 24-24v-336a24.028 24.028 0 0 0 -24-24zm-432 16h432a8.009 8.009 0 0 1 8 8v40h-448v-40a8.009 8.009 0 0 1 8-8zm440 64v208h-448v-208zm-169.444 384h-109.112l13.334-80h82.444zm161.444-96h-432a8.009 8.009 0 0 1 -8-8v-56h448v56a8.009 8.009 0 0 1 -8 8z"/><path d="m272 336h-32a8 8 0 0 0 0 16h32a8 8 0 0 0 0-16z"/><circle cx="56" cy="56" r="8"/><circle cx="88" cy="56" r="8"/><circle cx="120" cy="56" r="8"/><path d="m152 144h-80a8 8 0 0 0 0 16h32v88a8 8 0 0 0 16 0v-88h32a8 8 0 0 0 0-16z"/><path d="m184 160h256a8 8 0 0 0 0-16h-256a8 8 0 0 0 0 16z"/><path d="m440 192h-256a8 8 0 0 0 0 16h256a8 8 0 0 0 0-16z"/><path d="m280 232a8 8 0 0 0 -8 8h-88a8 8 0 0 0 0 16h88a8 8 0 0 0 16 0v-16a8 8 0 0 0 -8-8z"/></svg>